<svg xmlns="http://www.w3.org/2000/svg" width="32" height="32" viewBox="0 0 32 32"><g id="_3-Pay_per_Click" data-name="3-Pay per Click"><path fill="none" stroke="#000" stroke-width="2" d="M12,19a9,9,0,1,1,9-9"/><path fill="none" stroke="#000" stroke-width="2" d="M14,8h0a1,1,0,0,0-1-1H11a1,1,0,0,0-1,1V9a1,1,0,0,0,1,1h2"/><path fill="none" stroke="#000" stroke-width="2" d="M10,12h0a1,1,0,0,0,1,1h2a1,1,0,0,0,1-1V11a1,1,0,0,0-1-1H11"/><line x1="12" x2="12" y1="7" y2="5" fill="none" stroke="#000" stroke-width="2"/><line x1="12" x2="12" y1="13" y2="15" fill="none" stroke="#000" stroke-width="2"/><rect width="12" height="16" x="17" y="15" fill="none" stroke="#000" stroke-width="2" rx="3" ry="3"/><line x1="17" x2="29" y1="22" y2="22" fill="none" stroke="#000" stroke-width="2"/><line x1="23" x2="23" y1="15" y2="22" fill="none" stroke="#000" stroke-width="2"/></g></svg>