<svg xmlns="http://www.w3.org/2000/svg" viewBox="0 0 27.34 36.88"><defs><style>.cls-1{fill:none;stroke:#000;stroke-linecap:round;stroke-linejoin:round;stroke-width:1.44px}</style></defs><title>Asset 4</title><g id="Layer_2" data-name="Layer 2"><g id="Layer_1-2" data-name="Layer 1"><polygon points="6.17 3.91 13.67 3.91 21.17 3.91 26.62 8.97 20.14 23.19 13.67 23.19 7.2 23.19 .72 8.97 6.17 3.91 6.17 3.91" class="cls-1"/><path d="M18.56,31.59a4.42,4.42,0,0,1-1.43,3.23,5.14,5.14,0,0,1-6.92,0,4.42,4.42,0,0,1-1.43-3.23,3.89,3.89,0,0,1,1.43-3.22c2.66-1.94,3.49-1.75,3.46-3.26V23.19" class="cls-1"/><line x1="9.69" x2="9.69" y1="3.91" y2=".72" class="cls-1"/><line x1="17.65" x2="17.65" y1="3.91" y2=".72" class="cls-1"/><line x1="11.92" x2="2.86" y1="3.91" y2="12.36" class="cls-1"/><line x1="17.52" x2="4.7" y1="3.92" y2="15.88" class="cls-1"/><line x1="22.18" x2="6.31" y1="4.81" y2="19.62" class="cls-1"/><line x1="24.88" x2="8.15" y1="7.52" y2="23.14" class="cls-1"/><line x1="24.86" x2="14" y1="12.82" y2="22.91" class="cls-1"/></g></g></svg>