<svg xmlns="http://www.w3.org/2000/svg" id="Material_Expand" data-name="Material Expand" viewBox="0 0 64 64"><path d="M50,16a11.9,11.9,0,0,0-4.149.74,16.992,16.992,0,0,0-33.59-.614A11.992,11.992,0,0,0,11,39.6V44a2,2,0,0,0,2,2H24v4H10v4H24v4H10v4H26a2,2,0,0,0,2-2V46h8V60a2,2,0,0,0,2,2H54V58H40V54H54V50H40V46H51a2,2,0,0,0,2-2V39.6A11.992,11.992,0,0,0,50,16ZM49,42H15V30H49Zm4-6.589V28a2,2,0,0,0-2-2H13a2,2,0,0,0-2,2v7.411A8,8,0,0,1,13.948,20l.1,0a2,2,0,0,0,2-1.868A12.991,12.991,0,0,1,42,19c0,.261-.02.517-.038.772l-.01.142a2,2,0,0,0,3.208,1.73A7.914,7.914,0,0,1,50,20a8,8,0,0,1,3,15.411Z"/><rect width="4" height="4" x="2" y="58"/><rect width="4" height="4" x="2" y="50"/><rect width="4" height="4" x="19" y="34"/><rect width="18" height="4" x="27" y="34"/><rect width="4" height="4" x="58" y="58"/><rect width="4" height="4" x="58" y="50"/></svg>