<svg xmlns="http://www.w3.org/2000/svg" viewBox="0 0 24 24"><defs><style>.cls-1{fill:#231f20}</style></defs><title/><g id="Card"><path d="M21,2H9A1,1,0,0,0,8,3V5H3A1,1,0,0,0,2,6V21a1,1,0,0,0,1,1H21a1,1,0,0,0,1-1V3A1,1,0,0,0,21,2ZM4,11H8v2H4ZM8,7V9H4V7ZM4,15H8v5H4Zm10,5V18h2v2Zm6,0H18V17a1,1,0,0,0-1-1H13a1,1,0,0,0-1,1v3H10V4H20Z" class="cls-1"/><rect width="2" height="2" x="12" y="5" class="cls-1"/><rect width="2" height="2" x="16" y="5" class="cls-1"/><rect width="2" height="2" x="12" y="9" class="cls-1"/><rect width="2" height="2" x="16" y="9" class="cls-1"/><rect width="2" height="2" x="12" y="13" class="cls-1"/><rect width="2" height="2" x="16" y="13" class="cls-1"/></g></svg>